<svg aria-hidden="true" style="position: absolute; width: 0; height: 0; overflow: hidden;" version="1.1" xmlns="http://www.w3.org/2000/svg" xmlns:xlink="http://www.w3.org/1999/xlink">
<defs>
<symbol id="icon-vkontakte" viewBox="0 0 32 32">
<path d="M24 3.5h-16c-2.209 0-4 1.791-4 4v16c0 2.209 1.791 4 4 4h16c2.209 0 4-1.791 4-4v-16c0-2.209-1.791-4-4-4zM21.162 21c-0.61-1.902-2.128-3.373-4.137-3.573v3.573h-0.31c-5.466 0-8.584-3.754-8.714-10h2.739c0.090 4.585 2.108 6.526 3.707 6.927v-6.927h2.579v3.954c1.579-0.17 3.238-1.972 3.797-3.954h2.578c-0.43 2.442-2.229 4.244-3.508 4.985 1.279 0.601 3.328 2.172 4.107 5.015h-2.838z"></path>
</symbol>
<symbol id="icon-odnoklassniki" viewBox="0 0 32 32">
<path d="M8 4c-2.209 0-4 1.791-4 4v16c0 2.209 1.791 4 4 4h16c2.209 0 4-1.791 4-4v-16c0-2.209-1.791-4-4-4h-16zM16 8c2.206 0 4 1.794 4 4s-1.794 4-4 4-4-1.794-4-4 1.794-4 4-4zM16 10c-1.105 0-2 0.895-2 2s0.895 2 2 2v0c1.105 0 2-0.895 2-2s-0.895-2-2-2v0zM12.493 16.5c0.192-0.002 0.387 0.052 0.559 0.166 0.034 0.021 1.31 0.834 2.948 0.834 1.652 0 2.937-0.826 2.949-0.835 0.46-0.301 1.079-0.175 1.383 0.285s0.181 1.076-0.277 1.382c-0.057 0.038-1.159 0.76-2.76 1.049l2.912 2.912c0.39 0.39 0.39 1.024 0 1.414-0.195 0.195-0.451 0.293-0.707 0.293s-0.512-0.097-0.707-0.293l-2.793-2.793-2.793 2.793c-0.39 0.39-1.024 0.39-1.414 0s-0.39-1.024 0-1.414l2.912-2.912c-1.601-0.289-2.703-1.010-2.76-1.049-0.46-0.306-0.583-0.927-0.277-1.387 0.191-0.287 0.505-0.443 0.825-0.445z"></path>
</symbol>
<symbol id="icon-linkedin" viewBox="0 0 32 32">
<path d="M24 4h-16c-2.209 0-4 1.791-4 4v16c0 2.209 1.791 4 4 4h16c2.209 0 4-1.791 4-4v-16c0-2.209-1.791-4-4-4zM12 23.5h-2.5v-10h2.5v10zM12.014 11.505c-0.323 0.33-0.745 0.495-1.264 0.495-0.513 0-0.932-0.171-1.259-0.511s-0.491-0.759-0.491-1.255c0-0.51 0.164-0.926 0.491-1.249s0.746-0.485 1.259-0.485c0.519 0 0.941 0.162 1.264 0.485s0.486 0.739 0.486 1.249c0 0.517-0.162 0.941-0.486 1.271zM23.5 23.5h-2.5v-5.556c0-1.55-0.893-2.444-2-2.444-0.534 0-1.137 0.324-1.483 0.735s-0.517 0.931-0.517 1.563v5.703h-2.5v-10h2.5v1.582h0.039c0.736-1.217 1.806-1.822 3.213-1.826 1.998-0.006 3.248 1.494 3.248 4.121v6.123z"></path>
</symbol>
<symbol id="icon-instagram" viewBox="0 0 32 32">
<path d="M10.79 3.5c-4.019 0-7.29 3.272-7.29 7.293v10.416c0 4.020 3.272 7.291 7.293 7.291h10.416c4.020 0 7.291-3.272 7.291-7.293v-10.417c0-4.019-3.272-7.29-7.293-7.29h-10.417zM23.5 7.5c0.552 0 1 0.448 1 1s-0.448 1-1 1-1-0.448-1-1 0.448-1 1-1zM16 9.5c3.585 0 6.5 2.915 6.5 6.5s-2.916 6.5-6.5 6.5c-3.585 0-6.5-2.916-6.5-6.5s2.915-6.5 6.5-6.5zM16 11.5c-2.486 0-4.5 2.014-4.5 4.5s2.014 4.5 4.5 4.5 4.5-2.014 4.5-4.5-2.014-4.5-4.5-4.5z"></path>
</symbol>
<symbol id="icon-facebook" viewBox="0 0 32 32">
<path d="M24 3.5h-16c-2.209 0-4 1.791-4 4v16c0 2.209 1.791 4 4 4h8.5v-8.5h-3v-3.5h3v-2.5c0-3.5 2-5.5 5-5.5 1.567 0 2.5 0.5 2.5 0.5v3h-2c-1.43 0-2 1.046-2 2v2.5h3.5l-0.5 3.5h-3v8.5h4c2.209 0 4-1.791 4-4v-16c0-2.209-1.791-4-4-4z"></path>
</symbol>
<symbol id="icon-youtube" viewBox="0 0 32 32">
<path d="M8 4c-2.209 0-4 1.791-4 4v16c0 2.209 1.791 4 4 4h16c2.209 0 4-1.791 4-4v-16c0-2.209-1.791-4-4-4h-16zM10.6 7l1.102 0.001 0.712 3.427h0.069l0.677-3.427h1.113l-1.272 4.735v2.464h-1.094l-0.002-2.331-1.305-4.869zM15.736 8.725c0.405 0 0.734 0.125 0.992 0.378 0.258 0.251 0.388 0.577 0.388 0.974l0.002 2.69c0 0.445-0.125 0.796-0.378 1.052s-0.599 0.381-1.044 0.381c-0.428 0-0.769-0.133-1.027-0.394-0.257-0.261-0.384-0.614-0.385-1.056l-0.002-2.702 0.001 0.001c0-0.403 0.132-0.725 0.395-0.963 0.262-0.239 0.615-0.361 1.059-0.361zM17.966 8.8h0.991l0.003 4.095c0 0.123 0.021 0.213 0.063 0.27 0.040 0.054 0.11 0.084 0.201 0.084 0.075 0 0.167-0.037 0.276-0.111 0.113-0.073 0.215-0.168 0.307-0.282l-0.001-4.055h0.993v5.4h-0.855l-0.137-0.66c-0.183 0.215-0.372 0.378-0.571 0.489-0.197 0.111-0.389 0.171-0.575 0.171-0.23 0-0.403-0.079-0.52-0.236-0.117-0.155-0.175-0.391-0.175-0.705l-0.002-4.459zM15.691 9.628c-0.12 0-0.217 0.036-0.292 0.105s-0.111 0.162-0.111 0.275l0.001 2.839c0 0.141 0.034 0.254 0.107 0.332 0.069 0.077 0.167 0.116 0.297 0.116 0.133 0 0.236-0.040 0.314-0.121 0.078-0.078 0.117-0.189 0.117-0.328l-0.002-2.838c0-0.113-0.041-0.205-0.12-0.275-0.079-0.069-0.183-0.105-0.312-0.105zM16 15.5s5.234 0 6.386 0.283c0.636 0.156 1.137 0.617 1.307 1.2 0.308 1.059 0.308 3.267 0.308 3.267s-0 2.208-0.309 3.266c-0.17 0.584-0.67 1.044-1.306 1.2-1.151 0.284-6.386 0.284-6.386 0.284s-5.234-0-6.386-0.283c-0.636-0.156-1.137-0.617-1.307-1.2-0.308-1.059-0.308-3.267-0.308-3.267s0-2.208 0.309-3.266c0.17-0.584 0.67-1.044 1.306-1.2 1.151-0.284 6.386-0.284 6.386-0.284zM9.4 16.6v0.993h1v6.207h1v-6.207h1v-0.993h-3zM16 16.6v7.2h0.9l0.1-0.62c0.315 0.387 0.725 0.62 1.060 0.62 0.38 0 0.705-0.198 0.83-0.586 0.060-0.209 0.104-0.402 0.109-0.84v-2.606c0-0.491-0.064-0.863-0.129-1.072-0.125-0.387-0.431-0.601-0.811-0.606-0.485-0.005-0.685 0.249-1.060 0.686v-2.175h-1zM12.4 18.1v4.556c0 0.357 0.049 0.595 0.114 0.753 0.11 0.253 0.335 0.392 0.655 0.392 0.366 0 0.835-0.252 1.23-0.679l0.1 0.679h0.9v-5.7h-1v4.347c-0.22 0.288-0.54 0.506-0.74 0.506-0.13 0-0.235-0.054-0.26-0.198v-4.654h-1zM21.115 18.101c-0.505 0-0.896 0.159-1.181 0.456-0.215 0.218-0.335 0.575-0.335 1.041v2.756c0 0.461 0.136 0.788 0.346 1.002 0.285 0.297 0.674 0.445 1.194 0.445 0.515 0 0.92-0.153 1.19-0.471 0.12-0.139 0.2-0.297 0.235-0.471 0.005-0.079 0.034-0.292 0.034-0.545h-1v0.396c0 0.228-0.225 0.416-0.5 0.416s-0.5-0.188-0.5-0.416v-1.513h2v-1.621c0-0.466-0.114-0.802-0.319-1.020-0.275-0.297-0.67-0.456-1.165-0.456zM21.1 18.818c0.275 0 0.5 0.184 0.5 0.417v1.273h-1v-1.273c0-0.233 0.225-0.417 0.5-0.417zM17.61 18.959c0.27 0 0.39 0.164 0.39 0.685v2.603c0 0.521-0.12 0.7-0.39 0.7-0.155 0-0.45-0.105-0.61-0.264v-3.411c0.16-0.159 0.455-0.313 0.61-0.313z"></path>
</symbol>
<symbol id="icon-email" viewBox="0 0 32 32">
<path d="M26.667 5.333h-21.333c-1.467 0-2.652 1.2-2.652 2.667l-0.014 16c0 1.467 1.2 2.667 2.667 2.667h21.333c1.467 0 2.667-1.2 2.667-2.667v-16c0-1.467-1.2-2.667-2.667-2.667zM26.133 11.001l-9.426 5.892c-0.201 0.126-0.446 0.2-0.708 0.2s-0.506-0.075-0.713-0.204l0.006 0.003-9.426-5.892c-0.336-0.201-0.557-0.562-0.557-0.975 0-0.625 0.507-1.132 1.132-1.132 0.233 0 0.449 0.070 0.629 0.19l-0.004-0.003 8.933 5.586 8.933-5.588c0.176-0.118 0.392-0.188 0.624-0.188 0.625 0 1.132 0.507 1.132 1.132 0 0.413-0.221 0.775-0.552 0.972l-0.005 0.003z"></path>
</symbol>
<symbol id="icon-phone" viewBox="0 0 32 32">
<path d="M24.882 19.774l-3.268-0.373c-0.090-0.011-0.194-0.018-0.3-0.018-0.707 0-1.347 0.287-1.81 0.75l-2.368 2.368c-3.669-1.894-6.585-4.81-8.427-8.372l-0.051-0.108 2.382-2.377c0.463-0.463 0.75-1.103 0.75-1.81 0-0.106-0.006-0.21-0.019-0.312l0.001 0.012-0.373-3.243c-0.155-1.287-1.24-2.276-2.557-2.276-0.001 0-0.002 0-0.003 0h-2.226c-1.454 0-2.663 1.209-2.574 2.661 0.683 10.987 9.47 19.762 20.444 20.444 1.452 0.089 2.663-1.12 2.663-2.574v-2.226c0-0.004 0-0.008 0-0.012 0-1.308-0.985-2.386-2.253-2.532l-0.012-0.001z"></path>
</symbol>
</defs>
</svg>
